<?xml version="1.0" encoding="UTF-8" standalone="no"?>
<svg
   xmlns:dc="http://purl.org/dc/elements/1.1/"
   xmlns:cc="http://creativecommons.org/ns#"
   xmlns:rdf="http://www.w3.org/1999/02/22-rdf-syntax-ns#"
   xmlns:svg="http://www.w3.org/2000/svg"
   xmlns="http://www.w3.org/2000/svg"
   xmlns:sodipodi="http://sodipodi.sourceforge.net/DTD/sodipodi-0.dtd"
   xmlns:inkscape="http://www.inkscape.org/namespaces/inkscape"
   version="1.1"
   class="support"
   x="0px"
   y="0px"
   style="fill:#000;stroke:#000;"
   width="100px"
   height="100px"
   viewBox="0 0 100 100"
   data-reactid=".4aioes1h90.6.2.0.0.9.0.0.1.1.1"
   id="svg18"
   sodipodi:docname="call_center.svg"
   inkscape:version="1.0.2-2 (e86c870879, 2021-01-15)">
  <metadata
     id="metadata24">
    <rdf:RDF>
      <cc:Work
         rdf:about="">
        <dc:format>image/svg+xml</dc:format>
        <dc:type
           rdf:resource="http://purl.org/dc/dcmitype/StillImage" />
        <dc:title />
      </cc:Work>
    </rdf:RDF>
  </metadata>
  <defs
     id="defs22" />
  <sodipodi:namedview
     pagecolor="#ffffff"
     bordercolor="#666666"
     borderopacity="1"
     objecttolerance="10"
     gridtolerance="10"
     guidetolerance="10"
     inkscape:pageopacity="0"
     inkscape:pageshadow="2"
     inkscape:window-width="2400"
     inkscape:window-height="1284"
     id="namedview20"
     showgrid="false"
     inkscape:zoom="8.42"
     inkscape:cx="50"
     inkscape:cy="54.750594"
     inkscape:window-x="2391"
     inkscape:window-y="-9"
     inkscape:window-maximized="1"
     inkscape:current-layer="svg18"
     inkscape:document-rotation="0" />
  <g
     data-reactid=".4aioes1h90.6.2.0.0.9.0.0.1.1.1.0"
     id="g16"
     style="stroke-width:0;stroke-miterlimit:4;stroke-dasharray:none">
    <g
       data-reactid=".4aioes1h90.6.2.0.0.9.0.0.1.1.1.0.0"
       id="g4"
       style="stroke-width:0;stroke-miterlimit:4;stroke-dasharray:none">
      <path
         d="M50,61.138c-14.311,0-25.953-11.643-25.953-25.955C24.047,20.873,35.689,9.231,50,9.231s25.954,11.642,25.954,25.953    C75.954,49.495,64.311,61.138,50,61.138z M50,11.299c-13.17,0-23.884,10.714-23.884,23.884C26.116,48.355,36.83,59.07,50,59.07    s23.885-10.715,23.885-23.886C73.885,22.013,63.17,11.299,50,11.299z"
         data-reactid=".4aioes1h90.6.2.0.0.9.0.0.1.1.1.0.0.0"
         id="path2"
         style="stroke-width:0;stroke-miterlimit:4;stroke-dasharray:none" />
    </g>
    <g
       data-reactid=".4aioes1h90.6.2.0.0.9.0.0.1.1.1.0.1"
       id="g8"
       style="stroke-width:0;stroke-miterlimit:4;stroke-dasharray:none">
      <path
         d="M20.684,94.853c-0.572,0-1.034-0.463-1.034-1.034c0-12.204,7.258-23.174,18.491-27.947    c0.519-0.224,1.132,0.021,1.355,0.547c0.224,0.525-0.021,1.132-0.547,1.355c-10.467,4.448-17.231,14.671-17.231,26.044    C21.718,94.39,21.255,94.853,20.684,94.853z"
         data-reactid=".4aioes1h90.6.2.0.0.9.0.0.1.1.1.0.1.0"
         id="path6"
         style="stroke-width:0;stroke-miterlimit:4;stroke-dasharray:none" />
    </g>
    <g
       data-reactid=".4aioes1h90.6.2.0.0.9.0.0.1.1.1.0.2"
       id="g12"
       style="stroke-width:0;stroke-miterlimit:4;stroke-dasharray:none">
      <path
         d="M79.317,94.853c-0.572,0-1.034-0.463-1.034-1.034c0-13.377-9.497-25.031-22.582-27.709    c-0.56-0.114-0.921-0.661-0.806-1.22c0.114-0.56,0.666-0.916,1.22-0.806c14.043,2.873,24.236,15.379,24.236,29.735    C80.351,94.39,79.889,94.853,79.317,94.853z"
         data-reactid=".4aioes1h90.6.2.0.0.9.0.0.1.1.1.0.2.0"
         id="path10"
         style="stroke-width:0;stroke-miterlimit:4;stroke-dasharray:none" />
    </g>
    <path
       d="M78.881,25.887C74.944,13.688,63.492,4.833,50,4.833c-13.492,0-24.943,8.854-28.88,21.053   c-5.089,0.052-9.215,4.198-9.215,9.299c0,5.101,4.126,9.248,9.215,9.299c3.703,11.473,14.059,19.961,26.503,20.932   c0.395,0.924,1.31,1.572,2.377,1.572c1.428,0,2.586-1.158,2.586-2.586c0-1.428-1.158-2.586-2.586-2.586   c-1.051,0-1.946,0.633-2.351,1.532c-14.496-1.201-25.932-13.363-25.932-28.165C21.718,19.589,34.406,6.901,50,6.901   c12.42,0,22.972,8.058,26.764,19.213c0.22,0.648,0.409,1.308,0.582,1.976c0.59,2.272,0.937,4.64,0.937,7.094   c0,2.454-0.347,4.822-0.937,7.094c-0.175,0.673-0.365,1.337-0.587,1.989c0.008,0.002,0.016,0.006,0.025,0.008   c0.646,0.142,1.316,0.217,2.004,0.217c5.132,0,9.307-4.175,9.307-9.307C88.095,30.085,83.969,25.938,78.881,25.887z M13.973,35.184   c0-3.761,2.895-6.827,6.568-7.172c-0.561,2.304-0.891,4.697-0.891,7.171c0,2.475,0.33,4.868,0.892,7.173   C16.868,42.011,13.973,38.946,13.973,35.184z M79.46,42.355c0.561-2.304,0.892-4.697,0.892-7.172c0-2.474-0.33-4.866-0.891-7.17   c3.672,0.345,6.566,3.409,6.566,7.171C86.027,38.946,83.133,42.01,79.46,42.355z"
       data-reactid=".4aioes1h90.6.2.0.0.9.0.0.1.1.1.0.3"
       id="path14"
       style="stroke-width:0;stroke-miterlimit:4;stroke-dasharray:none" />
  </g>
</svg>
