<?xml version="1.0" encoding="UTF-8" standalone="no"?>
<svg
   xmlns:dc="http://purl.org/dc/elements/1.1/"
   xmlns:cc="http://creativecommons.org/ns#"
   xmlns:rdf="http://www.w3.org/1999/02/22-rdf-syntax-ns#"
   xmlns:svg="http://www.w3.org/2000/svg"
   xmlns="http://www.w3.org/2000/svg"
   xmlns:sodipodi="http://sodipodi.sourceforge.net/DTD/sodipodi-0.dtd"
   xmlns:inkscape="http://www.inkscape.org/namespaces/inkscape"
   version="1.1"
   class="prices"
   x="0px"
   y="0px"
   style="fill:#000;stroke:#000;"
   width="100px"
   height="100px"
   viewBox="0 0 100 100"
   data-reactid=".4aioes1h90.6.2.0.0.9.0.0.1.0.1"
   id="svg14"
   sodipodi:docname="cash_taka.svg"
   inkscape:version="1.0.2-2 (e86c870879, 2021-01-15)">
  <metadata
     id="metadata20">
    <rdf:RDF>
      <cc:Work
         rdf:about="">
        <dc:format>image/svg+xml</dc:format>
        <dc:type
           rdf:resource="http://purl.org/dc/dcmitype/StillImage" />
        <dc:title />
      </cc:Work>
    </rdf:RDF>
  </metadata>
  <defs
     id="defs18" />
  <sodipodi:namedview
     pagecolor="#ffffff"
     bordercolor="#666666"
     borderopacity="1"
     objecttolerance="10"
     gridtolerance="10"
     guidetolerance="10"
     inkscape:pageopacity="0"
     inkscape:pageshadow="2"
     inkscape:window-width="2400"
     inkscape:window-height="1284"
     id="namedview16"
     showgrid="false"
     inkscape:zoom="8.42"
     inkscape:cx="21.021378"
     inkscape:cy="50"
     inkscape:window-x="2391"
     inkscape:window-y="-9"
     inkscape:window-maximized="1"
     inkscape:current-layer="svg14"
     inkscape:document-rotation="0"
     inkscape:snap-bbox="true"
     inkscape:snap-global="false" />
  <g
     data-reactid=".4aioes1h90.6.2.0.0.9.0.0.1.0.1.0"
     id="g12"
     style="stroke-width:0;stroke-miterlimit:4;stroke-dasharray:none">
    <g
       data-reactid=".4aioes1h90.6.2.0.0.9.0.0.1.0.1.0.0"
       id="g10"
       style="stroke-width:0;stroke-miterlimit:4;stroke-dasharray:none">
      <path
         class="st4"
         d="M84,28H30c-0.5522461,0-1,0.4472656-1,1v4h-4c-0.5522461,0-1,0.4472656-1,1v4h-4    c-0.5522461,0-1,0.4472656-1,1v32c0,0.5527344,0.4477539,1,1,1h54c0.5522461,0,1-0.4472656,1-1v-4h4c0.5522461,0,1-0.4472656,1-1    v-4h4c0.5522461,0,1-0.4472656,1-1V29C85,28.4472656,84.5522461,28,84,28z M73,70H21V40h52V70z M78,65h-3V39    c0-0.5527344-0.4477539-1-1-1H26v-3h52V65z M83,60h-3V34c0-0.5527344-0.4477539-1-1-1H31v-3h52V60z"
         data-reactid=".4aioes1h90.6.2.0.0.9.0.0.1.0.1.0.0.0"
         id="path2"
         style="stroke-width:0;stroke-miterlimit:4;stroke-dasharray:none" />
      <path
         class="st4"
         d="M68,45h-4c-0.5522461,0-1,0.4472656-1,1s0.4477539,1,1,1h4c0.5522461,0,1-0.4472656,1-1S68.5522461,45,68,45z    "
         data-reactid=".4aioes1h90.6.2.0.0.9.0.0.1.0.1.0.0.1"
         id="path4"
         style="stroke-width:0;stroke-miterlimit:4;stroke-dasharray:none" />
      <path
         class="st4"
         d="M54.9785156,50H44v-1c0-3.2246094-1.7758789-5-5-5c-0.5522461,0-1,0.4472656-1,1s0.4477539,1,1,1    c2.1030273,0,3,0.8974609,3,3v1h-3c-0.5522461,0-1,0.4472656-1,1s0.4477539,1,1,1h2.9998779    c-0.0001221,2.1207275,0.0010986,4.1679688,0.0098877,6.421875c0.0068359,1.6552734,0.3168945,3.9951172,1.7548828,5.7412109    c1.2021484,1.4599609,2.9868164,2.0419922,4.7338867,2.0419922c0.9160156,0,1.8217773-0.1601562,2.6274414-0.4365234    c3.0493164-1.0458984,4.3764648-4.8339844,3.7026367-7.7167969c-0.3891602-1.6660156-1.5390625-2.9912109-3-3.4580078    c-0.9433594-0.3027344-2.0317383-0.2070312-2.9125977,0.2539062c-0.7836914,0.4111328-1.3510742,1.0810547-1.5976562,1.8886719    c-0.2875977,0.9423828-0.1435547,1.96875,0.3955078,2.8144531c0.5883789,0.9228516,1.5654297,1.5419922,2.6811523,1.6992188    c0.8759766,0.1210938,1.7758789-0.1064453,2.4980469-0.6044922c-0.2836914,1.4384766-1.1269531,2.7890625-2.4160156,3.2304688    c-1.6357422,0.5634766-3.9516602,0.4931641-5.168457-0.984375c-1.0634766-1.2910156-1.293457-3.1474609-1.2988281-4.4775391    C44.0009766,56.1627808,43.9997559,54.118103,43.9998779,52h10.9786377c0.5522461,0,1-0.4472656,1-1S55.5307617,50,54.9785156,50z     M52.0996094,58.6738281c-0.324707,0.4296875-0.8950195,0.6689453-1.4262695,0.5957031    c-0.5356445-0.0751953-0.9995117-0.3642578-1.2724609-0.7929688c-0.2280273-0.3574219-0.2880859-0.7685547-0.1694336-1.15625    c0.1137695-0.3740234,0.3959961-0.5869141,0.612793-0.7011719c0.2529297-0.1318359,0.5507812-0.2011719,0.8447266-0.2011719    c0.1821289,0,0.362793,0.0263672,0.5302734,0.0800781c0.3779297,0.1210938,0.7250977,0.3671875,1.0092773,0.6982422    C52.4506836,57.7578125,52.4067383,58.2666016,52.0996094,58.6738281z"
         data-reactid=".4aioes1h90.6.2.0.0.9.0.0.1.0.1.0.0.2"
         id="path6"
         style="stroke-width:0;stroke-miterlimit:4;stroke-dasharray:none" />
      <path
         class="st4"
         d="M30,63h-4c-0.5522461,0-1,0.4477539-1,1s0.4477539,1,1,1h4c0.5522461,0,1-0.4477539,1-1S30.5522461,63,30,63z"
         data-reactid=".4aioes1h90.6.2.0.0.9.0.0.1.0.1.0.0.3"
         id="path8"
         style="stroke-width:0;stroke-miterlimit:4;stroke-dasharray:none" />
    </g>
  </g>
</svg>
