<?xml version="1.0" encoding="UTF-8" standalone="no"?>
<svg
   xmlns:dc="http://purl.org/dc/elements/1.1/"
   xmlns:cc="http://creativecommons.org/ns#"
   xmlns:rdf="http://www.w3.org/1999/02/22-rdf-syntax-ns#"
   xmlns:svg="http://www.w3.org/2000/svg"
   xmlns="http://www.w3.org/2000/svg"
   xmlns:sodipodi="http://sodipodi.sourceforge.net/DTD/sodipodi-0.dtd"
   xmlns:inkscape="http://www.inkscape.org/namespaces/inkscape"
   version="1.1"
   class="delivery"
   x="0px"
   y="0px"
   style="fill:#000;stroke:#000;"
   width="100px"
   height="100px"
   viewBox="0 0 100 100"
   data-reactid=".4aioes1h90.6.2.0.0.9.0.0.1.2.1"
   id="svg14"
   sodipodi:docname="delivery.svg"
   inkscape:version="1.0.2-2 (e86c870879, 2021-01-15)">
  <metadata
     id="metadata20">
    <rdf:RDF>
      <cc:Work
         rdf:about="">
        <dc:format>image/svg+xml</dc:format>
        <dc:type
           rdf:resource="http://purl.org/dc/dcmitype/StillImage" />
        <dc:title />
      </cc:Work>
    </rdf:RDF>
  </metadata>
  <defs
     id="defs18" />
  <sodipodi:namedview
     pagecolor="#ffffff"
     bordercolor="#666666"
     borderopacity="1"
     objecttolerance="10"
     gridtolerance="10"
     guidetolerance="10"
     inkscape:pageopacity="0"
     inkscape:pageshadow="2"
     inkscape:window-width="1920"
     inkscape:window-height="1013"
     id="namedview16"
     showgrid="false"
     inkscape:zoom="8.42"
     inkscape:cx="50"
     inkscape:cy="50"
     inkscape:window-x="-9"
     inkscape:window-y="-9"
     inkscape:window-maximized="1"
     inkscape:current-layer="svg14"
     inkscape:document-rotation="0" />
  <g
     data-reactid=".4aioes1h90.6.2.0.0.9.0.0.1.2.1.0"
     id="g12"
     style="stroke-width:0;stroke-miterlimit:4;stroke-dasharray:none">
    <g
       data-reactid=".4aioes1h90.6.2.0.0.9.0.0.1.2.1.0.0"
       id="g10"
       style="stroke-width:0;stroke-miterlimit:4;stroke-dasharray:none">
      <path
         d="M93.798,46.467h-3.396l-1.979-11.318c-0.105-0.572-0.609-0.997-1.195-0.997H73.451v-3.249c0-0.669-0.549-1.21-1.219-1.21    H29.406c-0.67,0-1.215,0.541-1.215,1.21v31.907c0,0.672,0.545,1.217,1.215,1.217h6.168c0.577,3.557,3.676,6.279,7.394,6.279    c3.723,0,6.819-2.723,7.399-6.279h22.615c0.584,3.557,3.675,6.279,7.395,6.279c3.724,0,6.813-2.723,7.396-6.279h6.024    c0.671,0,1.212-0.545,1.212-1.217V47.677C95.01,47.005,94.469,46.467,93.798,46.467z M48.025,63.119    c-0.158,2.65-2.362,4.76-5.057,4.76c-2.795,0-5.068-2.27-5.068-5.068c0-2.793,2.272-5.064,5.068-5.064    c2.695,0,4.899,2.111,5.057,4.762C48.036,62.719,48.036,62.938,48.025,63.119z M80.377,67.879c-2.701,0-4.917-2.125-5.061-4.797    c-0.007-0.139-0.007-0.424,0-0.537c0.144-2.666,2.359-4.799,5.061-4.799c2.8,0,5.069,2.271,5.069,5.064    C85.446,65.609,83.177,67.879,80.377,67.879z M92.584,61.598h-4.811c-0.584-3.555-3.673-6.279-7.396-6.279    c-3.72,0-6.811,2.725-7.395,6.279H50.367c-0.58-3.555-3.677-6.279-7.399-6.279c-3.718,0-6.817,2.725-7.394,6.279h-4.955V32.119    h40.404v15.91c0,0.676,0.544,1.217,1.21,1.217c0.67,0,1.219-0.541,1.219-1.217V36.581h12.754l1.98,11.307    c0.101,0.582,0.607,1.004,1.201,1.004h3.197V61.598z"
         data-reactid=".4aioes1h90.6.2.0.0.9.0.0.1.2.1.0.0.0"
         id="path2"
         style="stroke-width:0;stroke-miterlimit:4;stroke-dasharray:none" />
      <path
         d="M24.103,52.781H8.775c-0.673,0-1.214,0.545-1.214,1.217c0,0.67,0.542,1.211,1.214,1.211h15.328    c0.67,0,1.211-0.541,1.211-1.211C25.314,53.326,24.773,52.781,24.103,52.781z"
         data-reactid=".4aioes1h90.6.2.0.0.9.0.0.1.2.1.0.0.1"
         id="path4"
         style="stroke-width:0;stroke-miterlimit:4;stroke-dasharray:none" />
      <path
         d="M24.103,38.506H6.206c-0.67,0-1.215,0.546-1.215,1.211c0,0.674,0.545,1.207,1.215,1.207h17.897    c0.67,0,1.211-0.533,1.211-1.207C25.314,39.052,24.773,38.506,24.103,38.506z"
         data-reactid=".4aioes1h90.6.2.0.0.9.0.0.1.2.1.0.0.2"
         id="path6"
         style="stroke-width:0;stroke-miterlimit:4;stroke-dasharray:none" />
      <path
         d="M24.103,45.642H13.348c-0.67,0-1.218,0.546-1.218,1.216c0,0.667,0.548,1.21,1.218,1.21h10.755    c0.67,0,1.211-0.543,1.211-1.21C25.314,46.188,24.773,45.642,24.103,45.642z"
         data-reactid=".4aioes1h90.6.2.0.0.9.0.0.1.2.1.0.0.3"
         id="path8"
         style="stroke-width:0;stroke-miterlimit:4;stroke-dasharray:none" />
    </g>
  </g>
</svg>
