<?xml version="1.0" encoding="UTF-8" standalone="no"?>
<svg
   xmlns:dc="http://purl.org/dc/elements/1.1/"
   xmlns:cc="http://creativecommons.org/ns#"
   xmlns:rdf="http://www.w3.org/1999/02/22-rdf-syntax-ns#"
   xmlns:svg="http://www.w3.org/2000/svg"
   xmlns="http://www.w3.org/2000/svg"
   xmlns:sodipodi="http://sodipodi.sourceforge.net/DTD/sodipodi-0.dtd"
   xmlns:inkscape="http://www.inkscape.org/namespaces/inkscape"
   width="22px"
   height="25px"
   style="display:inline-block;vertical-align:middle;"
   version="1.1"
   x="0px"
   y="0px"
   viewBox="-9 11 100 100"
   data-reactid=".qwmhr7dwna.6.2.0.0.0.0.2.5.1.0:$p11437.2.0.0"
   id="svg4"
   sodipodi:docname="horse.svg"
   inkscape:version="1.0.2-2 (e86c870879, 2021-01-15)">
  <metadata
     id="metadata10">
    <rdf:RDF>
      <cc:Work
         rdf:about="">
        <dc:format>image/svg+xml</dc:format>
        <dc:type
           rdf:resource="http://purl.org/dc/dcmitype/StillImage" />
      </cc:Work>
    </rdf:RDF>
  </metadata>
  <defs
     id="defs8" />
  <sodipodi:namedview
     pagecolor="#ffffff"
     bordercolor="#666666"
     borderopacity="1"
     objecttolerance="10"
     gridtolerance="10"
     guidetolerance="10"
     inkscape:pageopacity="0"
     inkscape:pageshadow="2"
     inkscape:window-width="1920"
     inkscape:window-height="1027"
     id="namedview6"
     showgrid="false"
     inkscape:zoom="34.4"
     inkscape:cx="11"
     inkscape:cy="12.5"
     inkscape:window-x="-8"
     inkscape:window-y="-8"
     inkscape:window-maximized="1"
     inkscape:current-layer="svg4" />
  <path
     class="st0"
     d="M59.4,32.6c0.2,0.2-0.2,0.3-0.2,0.3s-1.2,0.3-1.5,0.8c-0.3,0.3-0.8,1.5-0.8,1.5c0.7-0.2,1.5-0.3,2.3-0.7 c0.2,0,0.3,0.2,0.5,0.3c0.2,0-2,0.8-2.5,1.2c-0.3,0.3-2,1.7-2.5,1.7S53,37.9,53,37.9c0.2,0.3,0.3,0.7,0.7,1.2c0,0-1.2,0.7-1.2,0.8 c-0.2,0.2-1,1.2-1,1.2s3,0.3,4-1.3c-1,1.7-3.3,3.3-8.2,3.3c-5,0-9-2-11.7-3c-2.8-1.2-6.5-2.5-9.5-2.5c-2.8,0-6.2,0.8-8.4,2.9 c-3.9-1.5-9.2-0.7-11.7,1.7c-2.3,2.3-4.7,5.2-5,7.2c-0.5,2.2-1.7,7.4-3.3,9.7c-2.3,3.8-5,4.8-5.9,6.5c-0.8,1.7-0.8,5.2-0.7,5.2 c0.3,0.2,1.5,0,2.2-0.3c1.3-0.5,5-4.3,6.4-6.2c1.3-1.8,5.9-9.9,6.5-12.7c0.7-2.8,1.3-5.7,3.3-7.2c2.2-1.5,4.8-0.8,4.8-0.7 c0,0-2.5,2-2.7,7.5c-0.2,5.5,3.2,4.9,1.5,8.4c-1.7,3-6.7,1-8.4,2.8c-1.3,1.5,0,6.9,0,7.9c0,1-0.5,5.7-0.8,6.9c-0.2,1,0,1.7-0.2,2.3 c-0.2,0.5,1,0.7,1,0.7s-1,1.3-1.5,1c-0.5-0.2-0.8-0.2-1.2,0c-0.3,0-1,0.3-1.7,0l-2.7,5.7c0.3,0.2,0.8,0.3,1.3,0.2 c0.7-0.2,4-1.7,4.4-2c0.5-0.2,3.3-1.8,3.8-2.8c0.3-1,1-4.2,1-5.2c0.2-1,0.3-4.2,0.3-5c0-0.8-0.2-2.3,0-3c0.3-0.5,0.8-1.2,1.5-1.5 c0.8-0.2,1.8-0.2,2-0.2c0.3,0,3.2,0.3,3.7,0.3c0.7,0,3.3-0.5,4-0.8c0.8-0.2,1.3,0,1.5,0.3c0.3,0.3-0.3,0.8-0.3,1 c-0.2,0.2-1.5,1.8-1.8,2.5c-0.3,0.8-1.5,2.3-1.2,3c0.3,0.7,0.3,0.8,1.3,1.3c1,0.3,4.9,2.3,7,4.3c2.3,2.2,4.5,4.8,4.9,6.2 c0.5,1.5,1.3,1.7,1.8,1.7c0.5,0.2,1.5,0.3,1.5,1c0,0.7-0.2,1.5-0.2,1.5l6.2,2.3c0,0,0-2.2-0.2-3c-0.2-1-1.2-2-2-3 c-0.8-1.2-9.5-9.7-10.4-10.4c-0.8-0.5-1.5-1.2-1.7-2.5c-0.2-1.3,1.5-2.3,2.5-3.5c0.7-0.8,2.5-4.7,2.8-5.2c0.3-0.5,1.5-1.8,2.2-1.8 c0.8,0,2.7,1.2,5,2c1,0.3,8.2,2.2,9.2,2.5c1,0.2,3.2,0,3.8,0.7c0.7,0.5,0,1.8-0.2,2.7c-0.2,1-2,4.7-2,4.7s0.3,1.3,0.3,2.4 c0,1.2-0.5,5.3-1,6.7c-0.3,1.5-2.7,5.4-3.2,6c-0.3,0.5-0.8,0.8-0.8,1.7c0,0.8,1.5,1,2,1.7c0.7,0.5,0.2,1.5,0,2.5l6.7,2.8 c0-0.5,0.3-1.3,0-1.7c-0.2-0.5-1-1.5-1.5-2.2c-0.3-0.5-1.5-2.3-1.8-2.7c-0.3-0.5-0.3-1.5,0-2.3c0.2-0.8,2.3-6.5,2.5-7.2 c0.3-0.8,3.5-7.5,3.8-8.4c0.3-1,3-5.9,3.3-6.7c0.3-1,2.5-1.8,3.2-1.8c0.8,0,5,1.5,5.7,1.8c0.5,0.2,4.4,1.8,5,2.2 c0.8,0.3,0.3,1-0.2,1.2c-0.5,0.3-6.7,4.5-7.2,4.7c-0.5,0.2-1,0.7-1.3,0.7c-0.5,0-1.2,0.5-1.2,0.7c0,0.3-0.2,1-1,1c-0.7,0-2-1-2.8-2 c-1.2,0.7-2,1.2-2.5,2.2c-0.8,0.8-1.2,1.5-1.7,2.7c0.3,0.3,1,0.5,1.5,0.5h5.4c0.5,0,1.2-0.2,1.7-0.3c0.5-0.3,13.7-9,13.7-9 s2.2-1.7,2.2-3.2c0-1.2-1-1.5-1.3-2c-0.5-0.3-3.5-2.3-4-2.7c-0.7-0.5-3-1.8-3.7-2.2c-0.5-0.3-2.4-1-2.4-1c0.5-1.5,0.8-2.7,1-3 c0.2-0.3,0.2-3.4,0.3-3.9c0-0.5,0.8-2.7,1.2-3c0.3-0.3,1.2-3,1.3-3.5c0.2-0.3,1.5-4.2,2.2-4.2c0.7-0.2,1.3,0.5,2,0.5 c0.7,0.2,3.2-0.2,4.5,0c1.2,0.2,2.7,1.7,3,1.8c0.5,0.2,1.7,0.7,2,0.7c0.2,0,1.8-1.2,1.8-1.5c0-0.3-1.2-1-1.3-1 c-0.2-0.2-1.3-0.8-1.3-0.8c0,0.2,0.5-0.3,1.3-0.3c0.7,0,1.3,0.7,1.5,0.8c0.3,0.2,1.2,0.7,1.3,0.3c0.2-0.2,0.8-1,0.8-1.5 c0-0.7-0.7-1.5-1-1.8c-0.3-0.3-4.2-4-4.5-4.2c-0.5-0.2-2.5-2-2.5-2.5c-0.2-0.3-1.2-1.2-1.3-1.3c-0.2-0.2-5.2-3.7-5.9-4.2 c-0.7-0.5-1.3-1.3-1.3-2.2c0-0.8-0.3-3-0.3-3s-1.2-0.2-1.7,0.3c-0.5,0.3-1.7,3-2.3,3c-1.8-0.3-4.2,0.2-4.2,0.5 c0.2,0.5,1.8,0.2,1.8,0.2c0,0.2-0.7,1-1.2,1c-0.3,0-1.3,0.3-1.5,0.5c-0.3,0-1,0.5-1,0.5c0.5,0,1,0,1.7,0.2c0,0-1,0.7-1.5,0.7 c-0.5,0-2.2,0.5-2.7,0.7c-0.3,0.3-1.7,1.3-1.7,1.3h-1.5l0.2,0.3h0.8L59.4,32.6L59.4,32.6z"
     data-reactid=".qwmhr7dwna.6.2.0.0.0.0.2.5.1.0:$p11437.2.0.0.0"
     id="path2"
     style="stroke-width:0;stroke-miterlimit:4;stroke-dasharray:none;opacity:1" />
</svg>
