<svg id="Capa_1" enable-background="new 0 0 512 512" height="512" viewBox="0 0 512 512" width="512" xmlns="http://www.w3.org/2000/svg"><g><path d="m454.243 89.738c15.576-1.877 27.689-15.166 27.689-31.24 0-17.356-14.119-31.476-31.476-31.476h-388.913c-17.356 0-31.476 14.12-31.476 31.476 0 16.074 12.113 29.363 27.689 31.24-37.35 45.644-57.756 102.533-57.756 161.939 0 39.149 8.61 76.726 25.59 111.688 4.69 8.824 17.554 2.491 13.519-6.566-15.978-32.899-24.08-68.267-24.08-105.122 0-26.92 4.455-53.29 12.991-78.196h331.936c4.151 0 7.515-3.364 7.515-7.515 0-4.15-3.364-7.515-7.515-7.515h-326.217c10.45-24.898 25.136-48.048 43.646-68.477h46.372c4.151 0 7.515-3.365 7.515-7.515s-3.364-7.515-7.515-7.515h-62.214c-9.068 0-16.446-7.378-16.446-16.447s7.378-16.446 16.446-16.446h388.914c9.068 0 16.446 7.378 16.446 16.446s-7.378 16.447-16.446 16.447h-296.642c-4.151 0-7.515 3.364-7.515 7.515s3.364 7.515 7.515 7.515h280.801c18.509 20.429 33.195 43.579 43.645 68.477h-88.246c-4.151 0-7.515 3.365-7.515 7.515s3.364 7.515 7.515 7.515h93.964c8.537 24.907 12.991 51.277 12.991 78.196 0 46.956-13.513 92.459-39.076 131.591-24.617 37.682-59.065 67.626-99.691 86.68h-204.407c-41.03-19.243-75.714-49.552-100.377-87.736-2.25-3.485-6.903-4.487-10.389-2.235s-4.487 6.903-2.235 10.39c26.509 41.044 63.922 73.521 108.195 93.921.986.454 2.059.69 3.145.69h207.73c1.086 0 2.159-.235 3.145-.69 43.841-20.201 81.003-52.291 107.467-92.8 27.165-41.583 41.523-89.929 41.523-139.811 0-59.406-20.407-116.295-57.757-161.939z"/><path d="m128.285 332.033c-.927 2.002-.927 4.311 0 6.313.298.641 7.489 15.87 26.839 30.854 13.304 10.302 34.68 22.104 66.288 27.145 14.851 15.251 40.721 33.638 81.813 38.884 5.099.81 9.702-4.436 8.211-9.397l-9.072-33.888c25.97-7.716 45.781-20.641 59.448-32.147 2.295-1.421 3.484-1.322 5.418.512 11.986 15.415 28.561 25.17 47.932 28.209 6.628 1.263 11.42-7.253 6.909-12.269-.166-.198-16.606-20.002-16.606-41.063-.001-21.06 16.439-40.864 16.597-41.052 4.538-5.01-.262-13.551-6.9-12.278-19.373 3.039-35.948 12.795-47.934 28.211-1.933 1.833-3.12 1.934-5.418.512-9.817-8.264-22.805-17.263-38.966-24.537-5.646-19.555-22.733-43.345-23.506-44.414-1.626-2.249-4.362-3.419-7.107-3.044-32.308 4.408-59.465 28.011-66.743 34.846-33.858 4.64-56.497 17.008-70.365 27.748-19.35 14.985-26.541 30.214-26.838 30.855zm165.617 86.425c-19.873-4.091-35.146-11.628-46.62-19.728 2.239.067 4.505.113 6.824.113 12.064 0 23.278-1.214 33.664-3.287zm72.372-92.046c5.116-.54 9.669-3.068 12.818-7.119 5.586-7.185 12.224-12.751 19.841-16.656-4.462 8.932-8.499 20.377-8.498 32.55 0 12.173 4.036 23.618 8.499 32.55-7.618-3.905-14.254-9.469-19.84-16.654-6.185-8.349-19.172-9.596-26.962-2.784-19.244 16.201-51.872 35.513-98.025 35.513-18.106 0-34.902-2.282-49.97-6.71 7.618-12.567 11.739-27.114 11.739-41.913s-4.121-29.347-11.739-41.913c15.068-4.428 31.864-6.71 49.97-6.71 46.153 0 78.78 19.312 98.024 35.513 3.909 3.29 9.064 4.869 14.143 4.333zm-76.491-72.172c3.48 5.178 9.704 14.918 14.277 24.707-14.648-4.526-31.292-7.41-49.953-7.41-.772 0-1.525.015-2.288.023 9.983-6.908 23.386-14.343 37.964-17.32zm-124.73 58.263c7.315-5.562 15.557-10.246 24.576-14.055 7.355 10.849 11.218 23.442 11.218 36.741s-3.862 25.891-11.218 36.741c-9.019-3.809-17.261-8.493-24.576-14.055-11.802-8.974-18.415-18.048-21.32-22.684 2.913-4.651 9.524-13.719 21.32-22.688z"/><path d="m171.733 342.704h7.481c4.151 0 7.515-3.365 7.515-7.515s-3.364-7.515-7.515-7.515h-7.481c-4.151 0-7.515 3.364-7.515 7.515s3.364 7.515 7.515 7.515z"/><path d="m101.648 239.14c-16.334 0-29.622 13.289-29.622 29.623s13.289 29.623 29.622 29.623c16.335 0 29.623-13.289 29.623-29.623s-13.289-29.623-29.623-29.623zm0 44.216c-8.047 0-14.593-6.547-14.593-14.594s6.546-14.593 14.593-14.593 14.594 6.546 14.594 14.593c0 8.048-6.547 14.594-14.594 14.594z"/><path d="m179.214 248.574c16.334 0 29.622-13.289 29.622-29.623s-13.289-29.623-29.622-29.623c-16.335 0-29.623 13.289-29.623 29.623 0 16.335 13.289 29.623 29.623 29.623zm0-44.216c8.047 0 14.593 6.547 14.593 14.594s-6.546 14.593-14.593 14.593-14.594-6.546-14.594-14.593 6.547-14.594 14.594-14.594z"/></g></svg>